<svg width="14" height="14" viewBox="0 0 14 14" fill="none" xmlns="http://www.w3.org/2000/svg">
<path d="M9.33322 7.00039C9.32695 7.62398 9.0779 8.21964 8.64058 8.65695C8.20326 9.09427 7.61331 9.33762 6.99989 9.33372C6.38659 9.33743 5.79683 9.09399 5.35966 8.6567C4.9225 8.2194 4.67354 7.62385 4.66727 7.00039C4.67448 6.37756 4.92386 5.78295 5.36092 5.34644C5.79798 4.90993 6.38721 4.667 6.99989 4.67071C7.61269 4.6668 8.2021 4.90965 8.63932 5.34618C9.07654 5.78271 9.32601 6.37744 9.33322 7.00039ZM10.5912 7.00039C10.5879 6.52476 10.4924 6.05446 10.3101 5.61643C10.1277 5.17839 9.86221 4.78122 9.52869 4.44765C9.19516 4.11408 8.80018 3.85067 8.36638 3.67251C7.93257 3.49434 7.46846 3.40492 7.00061 3.40935C6.5327 3.40482 6.06851 3.49417 5.63462 3.6723C5.20073 3.85042 4.80567 4.11381 4.47206 4.44739C4.13846 4.78096 3.87286 5.17817 3.69049 5.61625C3.50812 6.05434 3.41255 6.5247 3.40926 7.00039C3.41227 7.4762 3.5076 7.94674 3.68981 8.38503C3.87201 8.82332 4.13749 9.22075 4.47105 9.55455C4.80461 9.88834 5.19968 10.1519 5.63362 10.3303C6.06757 10.5086 6.53186 10.5981 6.99989 10.5936C7.46798 10.5982 7.93235 10.5087 8.36637 10.3305C8.8004 10.1522 9.19556 9.88862 9.52919 9.55481C9.86282 9.221 10.1284 8.82353 10.3106 8.3852C10.4929 7.94686 10.5882 7.47626 10.5912 7.00039ZM11.5752 3.26384C11.5746 3.15268 11.5525 3.04274 11.51 2.94034C11.4674 2.83793 11.4054 2.74508 11.3275 2.66713C11.2495 2.58918 11.1572 2.52767 11.0558 2.48614C10.9544 2.44461 10.8459 2.42387 10.7365 2.42512C10.6272 2.42387 10.5187 2.44461 10.4173 2.48614C10.3159 2.52767 10.2235 2.58918 10.1456 2.66713C10.0676 2.74508 10.0056 2.83793 9.96311 2.94034C9.92059 3.04274 9.89842 3.15268 9.89785 3.26384C9.89842 3.37499 9.92059 3.48493 9.96311 3.58734C10.0056 3.68974 10.0676 3.78259 10.1456 3.86054C10.2235 3.93849 10.3159 4 10.4173 4.04154C10.5187 4.08307 10.6272 4.10381 10.7365 4.10255C10.8459 4.10381 10.9544 4.08307 11.0558 4.04154C11.1572 4 11.2495 3.93849 11.3275 3.86054C11.4054 3.78259 11.4674 3.68974 11.51 3.58734C11.5525 3.48493 11.5746 3.37499 11.5752 3.26384ZM6.99989 1.25882C8.02054 1.25882 10.2079 1.17693 11.1285 1.54108C11.4302 1.65662 11.7037 1.83695 11.9305 2.06975C12.1624 2.29542 12.3428 2.56996 12.4592 2.87409C12.8239 3.79471 12.7419 5.98179 12.7419 7.00258C12.7419 8.02337 12.8239 10.2105 12.4592 11.1311C12.3428 11.4352 12.1624 11.7097 11.9305 11.9354C11.7037 12.1682 11.4302 12.3485 11.1285 12.4641C10.2079 12.8297 8.02054 12.7463 6.99989 12.7463C5.97923 12.7463 3.79191 12.8282 2.87124 12.4641C2.56924 12.3473 2.29565 12.1654 2.06925 11.931C1.83739 11.7054 1.65694 11.4308 1.54058 11.1267C1.17591 10.2061 1.2579 8.01898 1.2579 6.99819C1.2579 5.97741 1.17591 3.79032 1.54058 2.86971C1.65694 2.56558 1.83739 2.29103 2.06925 2.06536C2.29607 1.83256 2.56963 1.65224 2.87124 1.53669C3.79191 1.17693 5.97923 1.25882 6.99989 1.25882ZM13.9992 7.00039C13.9992 6.03444 14.0085 5.07727 13.9539 4.11133C13.9741 3.01969 13.5678 1.96443 12.8239 1.17693C12.0259 0.429085 10.9743 0.0242258 9.88922 0.0471866C8.92323 -0.0076551 7.96588 0.00185061 6.99989 0.00185061C6.0339 0.00185061 5.07654 -0.00692387 4.11055 0.0471866C3.02551 0.0242258 1.97383 0.429085 1.17591 1.17693C0.432009 1.96443 0.0256486 3.01969 0.045922 4.11133C-0.00874304 5.07727 0.000607555 6.03444 0.000607555 7.00039C0.000607555 7.96633 -0.00874304 8.9235 0.045922 9.88945C0.0256496 10.9814 0.432289 12.037 1.17662 12.8246C1.97411 13.5735 3.02583 13.9794 4.11127 13.9572C5.07726 14.0121 6.03462 14.0026 7.00061 14.0026C7.9666 14.0026 8.92395 14.0114 9.88994 13.9572C10.9751 13.9792 12.0266 13.5733 12.8239 12.8246C13.5682 12.037 13.9748 10.9814 13.9546 9.88945C14.0085 8.9235 13.9992 7.96633 13.9992 7.00039Z" fill="#222222"/>
</svg>
