<?xml version="1.0" encoding="UTF-8"?>
<!DOCTYPE svg PUBLIC "-//W3C//DTD SVG 1.1//EN" "http://www.w3.org/Graphics/SVG/1.1/DTD/svg11.dtd">
<!-- Creator: CorelDRAW -->
<svg xmlns="http://www.w3.org/2000/svg" xml:space="preserve" width="214.639mm" height="159.566mm" version="1.1" style="shape-rendering:geometricPrecision; text-rendering:geometricPrecision; image-rendering:optimizeQuality; fill-rule:evenodd; clip-rule:evenodd"
viewBox="0 0 3837.21 2852.63"
 xmlns:xlink="http://www.w3.org/1999/xlink"
 xmlns:xodm="http://www.corel.com/coreldraw/odm/2003">
 <defs>
  <style type="text/css">
   <![CDATA[
    .fil0 {fill:#FEFEFE;fill-rule:nonzero}
   ]]>
  </style>
 </defs>
 <g id="Capa_x0020_1">
  <metadata id="CorelCorpID_0Corel-Layer"/>
  <g id="_1967391979088">
   <path class="fil0" d="M200.06 2258.88c-40.04,0 -81.97,-6.54 -118.39,-23.76 -29.89,-14.13 -56.34,-35.82 -70.67,-66.17 -7.43,-15.73 -11.01,-32.64 -11.01,-50.01 0,-38.42 18.57,-65.72 51.83,-83.86l2.29 -1.25 14.61 6.26 -5.62 5.62c-16.17,16.17 -22.23,36.76 -22.23,59.22 0,26.86 6.8,52.56 22.8,74.4 32.98,45 93.24,58.99 146.19,58.99 29.77,0 61.54,-4.6 88.27,-18.3 20.03,-10.26 36.88,-25.62 45.66,-46.67 4.31,-10.36 6.35,-21.39 6.35,-32.59 0,-150.37 -350.14,-64.14 -350.14,-218.61 0,-6.41 0.79,-12.8 2.38,-19.01 7.53,-29.53 31.36,-50.89 57.55,-64.49 34.82,-18.08 76.7,-24.7 115.63,-24.7 59.35,0 124.66,11.99 171.5,50.84l4.4 3.65 -28.49 30.39 -3.92 -3.46c-18.25,-16.12 -42.02,-27.51 -65,-35.1 -34.97,-11.55 -72.58,-15.95 -109.31,-15.95 -26.57,0 -55.71,3.21 -80.41,13.46 -16.74,6.95 -33.58,18.24 -40.5,35.73 -2.21,5.58 -3.26,11.45 -3.26,17.44 0,118.24 349.44,36.52 349.44,218.61 0,20.87 -4.78,41.08 -15.24,59.22 -13.57,23.55 -34.85,40.52 -59.36,51.7 -29.55,13.48 -63.06,18.41 -95.35,18.41zm558.24 -214.29l-177.9 0 -16.08 36.03c-15.74,35.25 -30.71,71.08 -40.01,108.65 -5,20.18 -8.33,40.69 -10.68,61.34l-0.54 4.77 -46.71 0 195.28 -437.94 36.4 0 195.28 437.94 -40.49 0 -94.54 -210.79zm609.55 181.13l0 -271.24c0,-27.97 -0.31,-57.09 -7.51,-84.29 -4.2,-15.83 -10.69,-30.55 -19.04,-44.62l-4.82 -8.13 48.44 0 0 437.94 -37.45 0 -312.69 -408.28 0 271.24c0,27.97 0.31,57.1 7.51,84.29 4.2,15.83 10.69,30.55 19.04,44.62l4.82 8.13 -48.44 0 0 -437.94 37.45 0 312.69 408.28zm344.64 -391.21l-56.24 0c-27.97,0 -57.09,0.31 -84.29,7.52 -15.83,4.2 -30.55,10.69 -44.62,19.04l-8.13 4.82 0 -48.44 425.33 0 0 48.44 -8.13 -4.82c-14.07,-8.35 -28.79,-14.85 -44.62,-19.04 -27.19,-7.21 -56.32,-7.52 -84.29,-7.52l-56.24 0 0 420.87 -38.77 0 0 -420.87zm484.47 424.37c-41.48,0 -82.11,-11.19 -115.99,-35.55 -55.73,-40.06 -79.17,-104.65 -79.17,-171.52 0,-133.39 88.85,-237.88 225.97,-237.88 41.35,0 81.84,11.13 115.59,35.43 55.67,40.1 78.87,104.85 78.87,171.63 0,133.26 -88.05,237.88 -225.27,237.88zm608.7 -201.37c38.84,3.39 68.97,22.24 82.76,61.87l47.3 136 -41.52 0 -43.25 -125.43c-12.99,-36.49 -42.83,-52.45 -80.36,-52.45 -11.09,0 -22.08,1.32 -32.96,3.34 -14.52,4.84 -29.03,9.73 -43.35,15.12 -12.97,4.88 -25.84,10.17 -38.18,16.5 -17.93,9.22 -38.25,22.47 -46.42,41.72 -2.64,6.21 -3.88,12.74 -3.88,19.48l0 81.71 -38.77 0 0 -437.94 189.56 0c30.72,0 62.83,1.74 92.68,9.41 24.12,6.19 48.19,16.9 64.38,36.49 14.43,17.46 19.9,38.69 19.9,61.02 0,20.41 -4.94,39.55 -15.7,56.96 -14.18,22.95 -36.42,39.65 -59.72,52.52 -16.79,9.27 -34.5,16.88 -52.45,23.66zm276.18 197.87l0 -437.94 38.77 0 0 437.94 -38.77 0zm544.22 -29.66l0 -271.24c0,-27.97 -0.31,-57.09 -7.52,-84.29 -4.2,-15.83 -10.69,-30.55 -19.04,-44.62l-4.82 -8.13 48.44 0 0 437.94 -37.45 0 -312.69 -408.28 0 271.24c0,27.97 0.31,57.1 7.51,84.29 4.2,15.83 10.7,30.55 19.04,44.62l4.82 8.13 -48.44 0 0 -437.94 37.45 0 312.69 408.28zm172.37 29.66l0 -437.94 38.77 0 0 437.94 -38.77 0zm-3210.48 -227.85l162.74 0 -82 -183.71 -80.73 183.71zm1636.32 200.98c39.4,0 78.71,-9.59 109.01,-35.96 39.62,-34.48 52.28,-87.33 52.28,-137.93 0,-63.41 -17.08,-130.36 -68.09,-172.12 -33.27,-27.24 -74.55,-38.19 -117.01,-38.19 -39.6,0 -79.1,9.69 -109.56,36.18 -39.62,34.46 -52.43,87.09 -52.43,137.71 0,63.1 16.71,129.8 67.32,171.58 33.6,27.74 75.49,38.73 118.48,38.73zm381.53 -99.98c13.11,-16.03 32.24,-27.7 50.39,-36.75 14.5,-7.24 29.52,-13.37 44.64,-19.2 16.01,-6.17 32.17,-11.95 48.25,-17.96 26.34,-9.85 52.96,-20.22 77.4,-34.25 20.55,-11.8 40.69,-27.06 52.84,-47.82 8.2,-14.01 11.95,-29.18 11.95,-45.37 0,-86.26 -118.08,-94.06 -180.9,-94.06l-104.56 0 0 295.42z"/>
   <path class="fil0" d="M1312.21 2423.05l-29.71 21.5 45.09 62.33 -15.06 10.9 -45.1 -62.33 -40.88 29.58 48.57 67.13 -15.06 10.9 -60.4 -83.48 115.78 -83.77 60.4 83.48 -15.07 10.9 -48.57 -67.13zm1751.81 -1649.72l-485.82 485.84c-6.89,6.96 -6.89,18.24 0,25.19 7,6.96 18.28,6.96 25.17,0l485.83 -485.85c7,-6.88 7,-18.17 0,-25.18 -6.89,-7 -18.17,-7 -25.18,0zm-271.62 803.39l632.08 -269.34c9.05,-3.86 19.51,0.36 23.37,9.41 3.86,9.05 -0.35,19.51 -9.41,23.37l-632.06 269.34c-9.06,3.85 -19.53,-0.35 -23.38,-9.41 -3.86,-9.04 0.35,-19.51 9.39,-23.37zm-1546.13 -317.55l-485.83 -485.84c-6.96,-7 -18.23,-7 -25.19,0 -6.96,7.01 -6.96,18.29 0,25.18l485.83 485.85c6.96,6.96 18.24,6.96 25.19,0 6.96,-6.95 6.96,-18.23 0,-25.19zm683.78 -268.48l0 -972.88c0,-9.86 -7.97,-17.81 -17.81,-17.81 -9.83,0 -17.81,7.96 -17.81,17.81l0 972.88c0,9.85 7.98,17.81 17.81,17.81 9.84,0 17.81,-7.97 17.81,-17.81zm678.93 609.72c-128.23,-254.8 -392.01,-429.63 -696.75,-429.63 -304.69,0 -568.51,174.83 -696.73,429.63l40.09 0c34.75,-65.06 78.88,-124.37 130.61,-176.11 134.68,-134.66 320.54,-217.88 526.02,-217.89 205.49,0.01 391.4,83.24 526.07,217.89 51.74,51.74 95.88,111.05 130.63,176.11l40.04 0zm398.16 -386.42l-301.16 196.71c-8.2,5.38 -10.57,16.41 -5.23,24.65 5.46,8.25 16.51,10.56 24.7,5.18l301.17 -196.71c8.31,-5.38 10.56,-16.41 5.22,-24.65 -5.35,-8.23 -16.39,-10.56 -24.7,-5.18zm-1604.7 -76.88l-196.71 -301.2c-5.38,-8.2 -16.42,-10.57 -24.66,-5.11 -8.24,5.34 -10.56,16.39 -5.17,24.58l196.7 301.2c5.38,8.24 16.42,10.56 24.66,5.17 8.24,-5.38 10.56,-16.41 5.18,-24.65zm269.13 -484.21l60.84 354.62c1.67,9.69 10.87,16.2 20.57,14.53 9.69,-1.66 16.21,-10.87 14.55,-20.57l-60.84 -354.52c-1.66,-9.74 -10.88,-16.27 -20.57,-14.61 -9.71,1.66 -16.21,10.93 -14.55,20.54zm491.16 1.9l-73.05 352.25c-2.01,9.63 4.2,19.06 13.82,21.07 9.63,2 19.06,-4.19 21.06,-13.82l73.06 -352.25c2,-9.62 -4.19,-19 -13.83,-21.02 -9.63,-2.02 -19.06,4.15 -21.06,13.77zm496.69 207.94l-207.7 293.75c-5.7,8.03 -3.8,19.14 4.27,24.83 8.08,5.67 19.12,3.77 24.82,-4.26l207.7 -293.78c5.7,-7.96 3.8,-19.12 -4.27,-24.82 -7.96,-5.58 -19.12,-3.67 -24.82,4.28zm-1520.44 518.99l-293.71 -207.69c-8.04,-5.67 -19.16,-3.78 -24.83,4.26 -5.69,8.03 -3.78,19.14 4.25,24.83l293.73 207.69c8.03,5.68 19.14,3.78 24.83,-4.26 5.68,-8.03 3.76,-19.14 -4.26,-24.83zm1402.4 -953.27l-269.34 632.06c-3.8,9.05 0.35,19.51 9.38,23.36 9.14,3.86 19.59,-0.34 23.39,-9.39l269.34 -632.02c3.92,-9.14 -0.36,-19.6 -9.38,-23.39 -9.03,-3.92 -19.47,0.35 -23.39,9.38zm-1504.98 1129.27l-632.07 -269.34c-9.05,-3.86 -19.51,0.36 -23.37,9.41 -3.86,9.05 0.35,19.51 9.41,23.37l632.06 269.35c9.06,3.85 19.52,-0.36 23.38,-9.41 3.85,-9.05 -0.35,-19.52 -9.4,-23.38zm534.13 -504.32l-256.49 -637.42c-3.67,-9.15 -14.05,-13.54 -23.17,-9.86 -9.13,3.69 -13.55,14.01 -9.88,23.16l256.48 637.42c3.67,9.13 14.05,13.55 23.17,9.88 9.13,-3.69 13.55,-14.05 9.88,-23.18zm-115.37 1515.17l-76.89 97.69 -15.86 -12.48 76.89 -97.68 -36.28 -28.56 11.5 -14.61 89.97 70.81 -11.5 14.61 -37.84 -29.78zm110.71 52.43l17.75 9.6 -68.01 125.69 -17.75 -9.6 68.01 -125.69zm65.02 109.28c6.61,-22.11 21.38,-41.15 43.19,-49.82 14.56,-5.79 30.39,-6.06 45.34,-1.58 20.18,6.03 37.37,19.85 45.04,39.78l1.04 2.7 -18.78 3.38 -0.79 -1.63c-5.98,-12.42 -18.75,-22.5 -31.84,-26.41 -9.02,-2.7 -18.41,-2.84 -27.44,-0.08 -18.38,5.65 -30.69,21.65 -36.04,39.56 -5.35,17.89 -3.85,37.99 8.38,52.79 6.02,7.29 13.96,12.34 22.99,15.03 13.09,3.92 29.3,2.51 41.11,-4.58l1.56 -0.94 13.83 13.13 -2.35 1.69c-17.35,12.47 -39.3,14.55 -59.49,8.51 -40.51,-12.12 -57.54,-52.19 -45.76,-91.54zm221.44 31.95l72.11 2.16 1.66 -55.24 20.17 0.6 -4.29 142.85 -20.17 -0.6 2.07 -69.02 -72.11 -2.16 -2.07 69.02 -20.17 -0.61 4.29 -142.85 20.17 0.61 -1.66 55.24zm188.4 -43.64l8.78 35.61 74.69 -18.41 4.45 18.05 -74.69 18.42 12.08 48.99 80.45 -19.83 4.45 18.05 -100.04 24.66 -34.21 -138.75 100.04 -24.67 4.45 18.05 -80.45 19.83zm200.06 -67.97l55.18 111.4 -18.09 8.96 -55.18 -111.4 -41.37 20.49 -8.25 -16.67 102.61 -50.81 8.25 16.66 -43.15 21.37zm148.11 -95.98l73.96 99.92 -16.22 12.01 -73.96 -99.92 -37.11 27.46 -11.06 -14.94 92.03 -68.12 11.06 14.94 -38.71 28.65zm190.08 -74.13l-37.05 51.22 18.27 31.98 -12.92 17.85 -80.67 -143.34 161.38 31.79 -12.92 17.85 -36.09 -7.35zm-47.14 33.44l27.1 -37.46 -55.01 -11.27 27.91 48.73z"/>
  </g>
 </g>
</svg>
